<svg width="32" height="40" viewBox="0 0 32 40" fill="none" xmlns="http://www.w3.org/2000/svg">
<path d="M15.4311 0.0101807C7.48398 0.289027 0.881889 6.48926 0.119162 14.4036C-0.0366635 15.9864 0.0535516 17.5201 0.332398 18.9881C0.332398 18.9881 0.357002 19.1604 0.439016 19.4884C0.685056 20.5874 1.05412 21.6536 1.51339 22.6541C3.11266 26.4432 6.81147 32.7828 15.1112 39.6802C15.6197 40.1066 16.3661 40.1066 16.8827 39.6802C25.1825 32.791 28.8813 26.4514 30.4888 22.6459C30.9563 21.6454 31.3171 20.5874 31.5632 19.4802C31.637 19.1604 31.6698 18.9799 31.6698 18.9799C31.8584 17.9958 31.9568 16.987 31.9568 15.9536C31.9568 6.94853 24.5018 -0.309672 15.4311 0.0101807ZM15.997 23.8925C11.7159 23.8925 8.24671 20.4234 8.24671 16.1423C8.24671 11.8611 11.7159 8.39197 15.997 8.39197C20.2781 8.39197 23.7473 11.8611 23.7473 16.1423C23.7473 20.4234 20.2781 23.8925 15.997 23.8925Z" fill="#FF0000"/>
</svg>
