<svg width="40" height="40" viewBox="0 0 40 40" fill="none" xmlns="http://www.w3.org/2000/svg">
<path d="M19.9219 0C8.93672 0 0 8.93672 0 19.9219C0 30.907 8.93672 40 19.9219 40C30.907 40 40 30.907 40 19.9219C40 8.93672 30.907 0 19.9219 0ZM28.2812 25.7812C26.6974 25.7812 25.3006 24.9874 24.4518 23.7816C23.3773 24.9977 21.8245 25.7812 20.0781 25.7812C16.8474 25.7812 14.2188 23.1526 14.2188 19.9219C14.2188 16.6912 16.8474 14.0625 20.0781 14.0625C21.4022 14.0625 22.6114 14.5207 23.5938 15.2643V15.2344C23.5938 14.5866 24.1179 14.0625 24.7656 14.0625C25.4134 14.0625 25.9375 14.5866 25.9375 15.2344C25.9375 17.8406 25.9375 18.4863 25.9375 21.0938C25.9375 22.3858 26.9892 23.4375 28.2812 23.4375C29.5733 23.4375 30.625 22.3858 30.625 21.0938C30.625 13.2507 25.435 9.375 20.0781 9.375C14.2623 9.375 9.53125 14.106 9.53125 19.9219C9.53125 25.7377 14.2623 30.4688 20.0781 30.4688C22.4219 30.4688 24.6386 29.718 26.4891 28.2966C27.7252 27.353 29.1407 29.2158 27.9173 30.1552C25.6526 31.8935 22.9426 32.8125 20.0781 32.8125C12.9702 32.8125 7.1875 27.0298 7.1875 19.9219C7.1875 12.814 12.9702 7.03125 20.0781 7.03125C26.5545 7.03125 32.9688 11.8074 32.9688 21.0938C32.9688 23.679 30.8665 25.7812 28.2812 25.7812Z" fill="#FF0000"/>
</svg>
