<svg width="50" height="50" viewBox="0 0 50 50" fill="none" xmlns="http://www.w3.org/2000/svg">
<path d="M2.44137 49.9998C1.95844 49.9999 1.48633 49.8568 1.08476 49.5885C0.683192 49.3203 0.370201 48.9389 0.185379 48.4928C0.000557536 48.0466 -0.0477912 47.5557 0.0464487 47.082C0.140689 46.6084 0.373283 46.1733 0.714812 45.8319L45.832 0.714677C46.2899 0.256765 46.911 -0.000488281 47.5586 -0.000488281C48.2061 -0.000488281 48.8272 0.256765 49.2851 0.714677C49.743 1.17259 50.0003 1.79365 50.0003 2.44124C50.0003 3.08883 49.743 3.70989 49.2851 4.1678L4.16794 49.285C3.94141 49.512 3.67227 49.692 3.37597 49.8147C3.07968 49.9373 2.76206 50.0003 2.44137 49.9998Z" fill="url(#paint0_linear_40_1861)"/>
<path d="M47.5584 49.9998C47.2377 50.0003 46.9201 49.9373 46.6238 49.8147C46.3275 49.692 46.0584 49.512 45.8319 49.285L0.714677 4.1678C0.256765 3.70989 -0.000488281 3.08883 -0.000488281 2.44124C-0.000488281 1.79365 0.256765 1.17259 0.714677 0.714677C1.17259 0.256765 1.79365 -0.000488281 2.44124 -0.000488281C3.08883 -0.000488281 3.70989 0.256765 4.1678 0.714677L49.285 45.8319C49.6265 46.1733 49.8591 46.6084 49.9534 47.082C50.0476 47.5557 49.9992 48.0466 49.8144 48.4928C49.6296 48.9389 49.3166 49.3203 48.915 49.5885C48.5135 49.8568 48.0414 49.9999 47.5584 49.9998Z" fill="url(#paint1_linear_40_1861)"/>
<defs>
<linearGradient id="paint0_linear_40_1861" x1="24.9999" y1="-0.000488281" x2="24.9999" y2="49.9998" gradientUnits="userSpaceOnUse">
<stop stop-color="#FF0000"/>
<stop offset="1" stop-color="#C70000"/>
</linearGradient>
<linearGradient id="paint1_linear_40_1861" x1="24.9999" y1="-0.000488281" x2="24.9999" y2="49.9998" gradientUnits="userSpaceOnUse">
<stop stop-color="#FF0000"/>
<stop offset="1" stop-color="#C70000"/>
</linearGradient>
</defs>
</svg>
