ь<svg width="52" height="103" viewBox="0 0 52 103" fill="none" xmlns="http://www.w3.org/2000/svg">
<path d="M25.9948 75L30.767 68.7004C35.7483 62.0456 52 39.3717 52 26.9752C52.0012 10.84 41.5531 0 26.0006 0C10.4481 0 0 10.84 0 26.9764C0 40.3257 19.0844 65.8477 21.255 68.7062L25.9948 75Z" fill="url(#paint0_linear_12_469)"/>
<path d="M24.4688 10.5886L24.4384 10.2622L23.9728 9.69736L23.8304 9.65576L23.7312 9.79816L23.7472 9.96776L23.5904 10.1102L23.5744 10.307L23.7584 10.4062L24.016 10.5902H24.4688V10.5886ZM28.0544 40.7214L27.8624 40.3566L27.6048 39.827L27.4 39.2734L27.2496 38.651L27.184 38.1166V37.5982L27.2384 36.987L27.3072 36.6798L27.2256 36.419L27.0576 36.2846L26.72 36.035L26.4816 35.8654L26.4368 35.539L26.3248 35.1902L26.1136 34.8478L25.8864 34.5566L25.6016 34.2846L25.24 34.011L24.8336 33.707L24.6176 33.603L24.4032 33.5374L24.2224 33.5678L24.0656 33.6718L23.9968 33.8414L24.0432 34.1486L24.2 34.8366L24.472 35.7438L24.6992 36.2862L25.0032 36.9774L25.2192 37.3838L25.5488 37.9838L25.944 38.6526L26.256 39.083L26.5168 39.4318L26.528 39.6238L26.4928 39.7806L26.3472 39.8382L25.9088 39.8606L25.1408 39.8142L24.5072 39.7326L23.9504 39.6334L23.2736 39.4414L22.9312 39.291L22.704 39.1918L22.4464 39.1454L22.1504 39.1566L21.9936 39.2254H21.7776L21.2672 39.1454L20.976 39.0462L20.6576 39.0238L20.1504 39.0126L19.7664 38.9774H19.4128L19.064 38.9998L18.8256 39.099L18.656 39.1454L18.5984 39.2254L18.6096 39.3838L18.7712 39.6446L19.0752 40.0638L19.256 40.1406L19.5408 40.3438L19.8672 40.5246L20.2208 40.6398L20.728 40.651L21.1808 40.6046L21.5648 40.5166L21.8912 40.4126L22.0288 40.4814L22.0944 40.6158L22.2096 40.651L22.4896 40.6398L22.8432 40.6638L23.024 40.7214L23.2384 40.6638L23.9376 40.7518L24.4144 40.8206L25.1936 40.9902L25.7616 41.1582L26.3232 41.3502L26.8176 41.5774L27.0096 41.715L27.52 41.7374L27.792 41.6686L27.9376 41.3726L28.0944 41.011L28.0544 40.7214ZM20.0672 39.5614L20.032 39.6414L19.9712 39.715L19.9216 39.731L19.8176 39.7342L19.7248 39.707L19.6832 39.6718L19.6224 39.595L19.6256 39.5262L19.6608 39.4766L19.7792 39.4382L19.9168 39.411L20.0208 39.4078L20.0704 39.4382L20.0816 39.4958L20.0672 39.5614ZM25.5712 40.2638L25.5296 40.3182L25.3984 40.3262L25.1712 40.2878L24.9712 40.2526L24.7632 40.2414L24.5632 40.2254L24.1056 40.1102L23.744 39.9982L23.4864 39.9134L23.448 39.8398L23.4592 39.7598L23.5088 39.7406L23.8464 39.8478L23.9968 39.9086L24.1536 39.9438L24.3456 39.971L24.664 40.0062L24.9408 40.0478L25.2016 40.067L25.4128 40.1134L25.5312 40.1438L25.5664 40.1902V40.2638H25.5712ZM27.1392 40.0382L27.0976 40.115L27.0208 40.1758L26.9088 40.203L26.848 40.1758L26.8288 40.1102L26.848 40.0366L26.952 39.9598L27.0288 39.9406H27.1136L27.1408 39.9758V40.0382H27.1392Z" fill="white"/>
<path d="M39.5553 24.6336L39.3985 24.56V24.8016L39.2721 24.944L39.0449 25.2816L38.9185 25.3664L38.5649 25.7936L38.4225 26.0208L38.2529 26.4016L38.0689 26.432L37.8993 26.3328L37.7985 25.88L37.8257 25.3584L37.9409 24.8736L38.2209 24.4208L38.7889 23.5712L39.1281 22.88L39.1697 22.3952L39.1153 22.2416L39.0161 22.3408L38.8465 22.7632L38.5889 23.1904L38.2081 23.5024L37.7697 23.9248L37.1169 24.6896L36.9905 24.6784L36.9489 24.5472L36.9329 24.2352L36.9745 23.6544L37.1745 23.0048L37.5281 22.2832L37.9969 21.7024L38.5777 21.2064L38.6321 21.0912L38.5633 21.0368L38.2673 21.1904L38.0257 21.3472L37.6145 21.7008L37.1041 22.1536L36.7393 22.6496L36.3841 23.2992L36.1889 23.8256L36.1313 24.3488L36.1041 25.056L36.2737 25.7936L36.4433 26.432L36.7697 27.4352L36.9809 28.6384L37.1073 29.5568V30.0528L37.0529 30.5744L36.9681 31.0016L36.8097 31.4816L36.2145 32.2304L35.6065 32.784L34.8273 33.2224L34.0785 33.264L33.9793 32.8992L33.7105 32.3728L33.3425 31.8656L33.1009 31.5664L32.7777 31.128L32.0817 30.464L31.3745 29.8832L31.0641 29.6416L30.0881 28.9808L28.6865 27.8048L27.9217 26.856L27.0849 25.4848L26.8577 24.6624L26.9153 24.152L27.0305 24.0528L27.3265 24.2528L27.7953 24.48L28.1761 24.464L28.6129 24.664L29.0817 24.9488L29.3233 25.144L29.6353 25.36L29.9585 25.4016L30.0321 25.2592L29.9473 25.2432L29.8481 25.2848L29.6913 25.1856L29.5521 24.9744L29.3521 24.648L28.9681 24.2944L28.5873 24.152L28.3761 24.1104L28.4193 23.9984H28.7153L29.0577 24.1104L29.5537 24.4368L29.7809 24.536L29.8657 24.4208L29.7233 24.2256L29.3393 23.8832L28.7441 23.5728L28.0257 23.2928L27.8833 23.1776L28.0257 23.0784L28.3489 23.2352L28.9441 23.3344L29.5809 23.5888L29.9185 23.7584L30.5137 23.8432L30.9409 23.7856L31.1793 23.6736L31.5057 23.4736L31.6481 23.336L31.6641 23.2368L31.5313 23.248L31.4049 23.3792L30.9825 23.5184L30.6145 23.576L30.3025 23.5344L30.0033 23.296L29.7345 22.9808L29.4113 22.7424L28.9281 22.6432L28.4625 22.4864L28.2625 22.36L28.2785 22.248L28.4625 22.2752H28.8737L29.2849 22.248H29.7073L29.9345 22.2064L30.1185 22.36L30.4145 22.4336H30.6561L30.7681 22.3488L30.5729 22.2912L30.3313 22.1344L30.0769 21.896L29.6657 21.68L29.3281 21.6384L29.0177 21.5968L28.9025 21.528L29.1297 21.4016H29.4977L29.7825 21.4864L30.0625 21.6288L30.5153 21.824L30.9681 21.84L31.2097 21.7248L31.2785 21.5712L31.0945 21.4864L30.7137 21.4704L30.3873 21.3584L30.1041 21.1168L29.7921 20.96L29.3809 20.8912L29.0273 20.7648L28.8737 20.5648L28.9009 20.4656L29.1281 20.512L29.4129 20.5968L29.5825 20.7232L29.8241 20.7504L29.8513 20.624L29.5985 20.424L29.5249 20.2432L29.8657 20.2976L30.1889 20.4672L30.6001 20.5136L30.7585 20.8096L31.1809 21.064L31.2033 21.0608L31.2961 21.0224L31.4081 20.9536L31.3537 20.8688L31.1953 20.88L31.0529 20.6848L30.7681 20.2464L30.2721 19.8048L29.7649 19.5776L29.6225 19.408L29.3105 19.04L29.0257 18.8864L28.9841 18.744L29.1105 18.6592L29.4097 18.728L30.0017 18.8976L30.2865 18.9968L30.4705 19.2544L30.7665 19.408H30.9937L31.2929 19.4928L31.6193 19.4352L31.7457 19.3232L31.5617 19.1664L31.2929 19.0976L30.9809 19.056L30.7969 18.8992L30.5553 18.5456L30.4977 18.3184L30.1857 18.0384L29.8481 17.8224L29.4641 17.584L29.0417 17.1888L29.0145 17.0736H29.1105L29.6641 17.512L30.2289 17.8384L30.5281 18.0656L30.9089 18.4192L31.2497 18.6032L31.4465 18.6608L31.5457 18.504L31.4033 18.4496L31.1073 18.1808L31.0225 17.8816L30.7121 17.544L30.4545 17.328L30.3281 17.0048L29.8897 16.352L29.2945 15.8288L29.2673 15.6592L29.4785 15.6864L29.7777 15.84L30.2577 16.04L30.7537 16.0672L31.1217 16.24L31.5169 16.3088L31.8545 16.2096L31.8273 16.0672L31.4433 15.9824L31.1057 15.8288L30.4257 15.5024L30.0577 15.3024L29.8609 15.064L29.9297 14.9792L30.0289 15.048L30.1825 15.1056L30.3825 15.1216H30.7089L30.9889 15.0912L31.4161 15.064L31.7425 15.1904L32.0801 15.432L32.2225 15.4736L32.2385 15.3472L32.1233 15.232L31.7857 14.92L31.2593 14.6512L30.8785 14.6096L30.1569 14.568L29.9889 14.368L29.6209 14L29.2097 13.72L29.0561 13.5776L29.1825 13.4784L29.3777 13.5632L29.7313 13.7472L30.1313 13.8896L30.6689 14.016H31.1345L31.5185 14.4432L31.8305 14.6272L31.9425 14.512L31.5201 13.8896L30.8561 13.4096L30.3025 13.2784L29.8337 12.7872L29.4225 12.5456L28.8577 12.4032L29.1697 12.1344L29.7233 11.9504L30.1345 11.824L30.2305 11.6976L30.1761 11.5984L29.9489 11.5408L29.7345 11.4992L28.1361 11.5296L27.8513 11.2144L27.5281 11.0032L27.1169 10.8192L26.5793 10.7344H26.1137L25.9873 10.5648L25.5489 10.096L25.0225 9.61597L24.6993 10.1536L24.6833 10.3232L24.8369 10.5232L24.8529 10.6928L24.7409 10.792L24.3841 10.8192L23.7345 10.6352L23.0961 10.4976L22.8001 10.5088L22.3169 10.608L22.3745 10.7776L22.6433 10.7664L22.7553 10.7856L22.7521 10.936L22.5953 10.9712L22.3921 10.944L22.0849 11.0096L21.8545 11.0832L21.6705 11.0944L21.6129 11.1744L21.6785 11.2864L21.8177 11.3168L21.9489 11.2784L22.0993 11.2128L22.2529 11.2048L22.5793 11.2208L22.8289 11.2976L23.1249 11.3712L23.5585 11.5664L23.5969 11.6592L23.5505 11.7328L23.3473 11.8064L23.2241 11.864L23.0049 12.0096L22.6705 12.1872L22.2641 12.4752L21.7921 12.664L21.4241 12.9056L21.0897 13.0512L20.7745 13.128L20.4977 13.136L20.1169 13.144L19.9713 13.1824L19.8865 13.36L19.8209 13.552L19.7473 13.6832L19.5633 13.96L19.3857 14.2672L19.2673 14.4176L19.2561 14.5904L19.2673 14.832V15.0896L19.4241 15.232L19.5633 15.3056L19.7281 15.2944L19.9969 15.2208L20.3009 15.128L20.7121 14.9632L20.8769 14.9712L20.9153 15.0752L20.8769 15.1744L20.7377 15.248L20.3185 15.4048L20.0033 15.4976L19.9425 15.6016L19.9313 15.7136L20.0353 15.8064L20.2545 15.8336H20.4321L20.6545 15.8256L20.8961 15.768L21.2465 15.584L21.4769 15.5376L21.6721 15.4992L21.8225 15.5488L22.0417 15.5376L22.2577 15.5648L22.4353 15.6688L22.7121 15.696L23.0737 15.808L23.2689 15.8352L23.5729 15.7808L23.9617 15.808L24.1313 15.8736L24.2241 16.0304L24.2049 16.2336L24.1585 16.4832L24.0657 16.7712L23.9345 17.1328L23.8033 17.528L23.6641 17.8896L23.5713 18.1392L23.2561 18.6304L22.8753 19.1104L22.5329 19.5824L22.0993 20.016L21.6993 20.3536L21.4449 20.6224L21.3105 21.064L21.1249 21.2832L20.8865 21.4528L20.5985 21.6912L20.1569 21.96L19.7841 22.1472L19.5457 22.4192L19.3761 22.64L19.2065 22.744L18.9681 22.8624L18.8145 22.8272L18.5105 22.688L18.1729 22.4688L17.6769 22.2496L17.1201 21.9584L16.8321 21.7392L16.4753 21.4512L16.0833 21.128L15.6609 20.9744L15.2881 20.9088L14.8113 21.008L14.4737 21.1968L14.1825 21.4L14.0321 21.7728L13.9281 22.0608L13.8097 22.5024L13.6753 22.7712L13.5409 23.1824L13.5217 23.6736L13.4033 23.9616L13.2689 24.4192L13.1505 24.8768L12.9313 25.304L12.8129 25.7264L12.7441 26.2528L12.5553 26.6944L12.4369 26.9472L12.4209 27.2016L12.4049 27.6288V28.3744L12.3201 28.6816L12.3697 28.9504L12.3505 29.392L12.5041 29.7456L12.6225 29.8304L12.8417 29.7616L13.0449 29.5776L13.3361 29.224L13.5905 28.8176L13.6897 28.48L13.6241 28.208L13.5393 27.8704L13.4353 27.464L13.3361 27.0384L13.2817 26.7152V26.4112L13.3505 26.0688L13.5201 25.5456L13.6897 25.2736L13.8433 25.136L13.9617 24.952L14.1809 24.9328L14.2849 24.8672L14.4385 24.728L14.6081 24.5776L14.7617 24.3744L14.8273 24.136L14.8817 23.9328L14.8977 23.6608L14.9473 23.4224L15.0657 23.272L15.1841 23.2368L15.3377 23.2864L15.5569 23.4048L15.7953 23.6768L16.0497 24.0496L16.3377 24.3872L16.6449 24.6592L16.9169 24.8784L17.1857 24.9968L17.2705 25.1664L17.1857 25.2512L16.8977 25.1856L16.4913 25.1504L15.9649 25.0464L15.4577 24.9472L14.8465 24.928L14.4897 24.9472L14.2177 25.1168L13.9297 25.3696L13.6913 25.776L13.5073 26.2368L13.4881 26.5744L13.5921 27.1856L13.8305 27.9648L13.9489 28.576L14.0993 29.1712L14.2033 29.5904L14.2529 29.9824L14.3873 30.424L14.4913 31.1008L14.5905 31.3392L14.8481 31.5424L15.0865 31.7808L15.3553 32.1888L15.5441 32.6656L15.8321 33.088L16.2545 33.4944L16.5601 33.6832L16.7633 33.6992L16.9329 33.6496L17.0369 33.4112L17.1521 33.208L17.2209 32.92V32.2592L17.1361 32.0704C17.1201 32.0704 17.1201 31.952 17.1201 31.936L17.0849 31.8176L16.9457 31.6144L16.6913 31.36L16.2193 31.1568L16.0465 31.1024L16.0161 30.8144L16.0321 30.6304L15.7089 30.2576L15.5057 29.7808L15.3361 29.104L15.1985 28.4784L14.9649 27.9872L14.8801 27.392L15.0145 27.0352L15.2529 26.9008H15.4369L15.7089 27.1392L16.1009 27.3776L16.5073 27.528L17.4913 28.0048L17.9681 28.2768V28.5296L18.4065 28.7824L18.9681 28.9712H20.1393L20.0545 29.1904L20.0049 29.3088L20.1553 29.5936L20.4433 30.0208L20.9041 30.4784L21.4609 31.0896L21.9377 31.512L22.8289 32.1952L23.5505 32.5824L24.0929 32.8704L24.7889 33.3424L25.4305 33.8L25.9841 34.2688L26.5601 35.048L26.5873 35.3744L26.7185 35.712L27.0721 35.9664L27.3953 36.0928L27.5953 36.0656L27.7537 35.912L27.9809 35.6704L28.0353 35.344L28.3041 34.8784L28.3617 34.5216L28.4049 34.1264L28.4321 33.8144L28.5201 33.6192L28.7009 33.5312H28.8737L28.8849 33.6624L28.7585 33.8L28.6465 34.0992L28.5617 34.2832V34.5104L28.5313 34.9904L28.4625 35.232L28.2513 35.5968L27.9665 36.0656L27.6833 36.576L27.5153 37.24L27.4305 37.936L27.5153 38.712L27.6273 39.1648L27.8961 39.76L28.2385 40.4672L28.5073 41.0208L28.8753 41.6016L29.3137 42.1392L29.3985 42.3232V42.4496L29.3409 42.6064L29.1873 42.8608L28.9457 43.1984L28.4497 43.8368L27.9537 44.3744L27.5009 44.8704L27.3057 44.9856L26.9057 45.1392L26.6673 45.3664L26.5409 45.624L26.2561 45.9776L25.9345 46.3312L25.5393 46.7424L25.2977 47.1648L25.1553 47.592L25.0705 47.9456L25.0865 48.2304L25.2561 48.4112H25.8785L26.1473 48.384L26.4289 48.216L26.7969 48.0464L26.8545 47.904H26.9809L27.1761 47.8192L27.3601 47.6464L27.4609 46.9696L27.4033 46.8272L27.3761 46.6848L27.4769 46.712L27.5873 46.7424L27.7025 46.6576L27.8865 46.5424L28.0817 46.288L28.3233 45.9456L28.4497 45.6352L28.4769 45.3808L28.6353 45.2656L28.8625 45.1392L29.0465 45.0272L29.2001 44.7168L29.5265 44.376L30.1361 43.8112L30.6001 43.5008L31.0689 43.2432L31.1793 43.1312L31.2225 43.016L31.3217 42.8896L31.2529 42.7216L31.2385 42.4096L31.1761 42.1184L31.1025 41.9488L30.9409 41.672L30.6833 41.3488L30.5569 41.1072L30.5297 40.8528V40.512L30.5873 40.3168L30.7409 39.7904L30.8977 39.536L31.0673 39.4368L31.3777 39.2416L31.7457 38.9264L32.2417 38.504L32.5793 38.1504L32.9201 37.7552L33.2737 37.3552L33.5281 36.9056L33.7393 36.5216L33.9393 36.0832L34.0817 35.5984L34.1249 35.1488L34.1521 34.8064L34.2673 34.6944L34.3937 34.664L34.5057 34.7376L34.6049 34.976L34.6321 35.3024L34.6785 35.6128L34.6481 35.824L34.6209 36.1504V36.8464L34.7057 37.3952L34.8049 37.5376L34.8897 37.5264L34.9313 37.4272L34.8737 37.2V36.816L34.9889 36.4928L35.0433 36.024L35.1009 35.6976L35.1745 35.544H35.2593L35.3281 35.6128L35.3969 35.8816L35.4545 36.1392L35.4273 36.5456L35.3425 37.0992L35.0849 37.6368L34.8465 38.1472L34.7041 38.5856L34.6769 38.8544L34.7041 39.1648L34.8033 39.464H34.9873L35.0833 39.3328L35.0289 39.1904L34.9873 38.936L35.1553 38.7088L35.3521 38.44L35.4833 38.1872L35.7937 37.6912L36.0481 37.2384L36.1601 36.7424L36.2593 36.0896V35.4432L36.1329 34.9904L35.8785 34.6368L35.8481 34.4688L35.9633 34.4112L36.1057 34.48L36.2897 34.7072L36.5169 35.1184L36.6129 35.5984L36.6705 36.2368L36.8129 36.6784L36.8289 36.6896L37.0241 37.128L37.1505 37.1744L37.2081 37.0592L37.1937 36.9904L37.0977 36.664L37.0833 36.3376L37.0977 35.8576L37.1825 35.32V35.0512L37.1521 34.824L36.9249 34.3696L36.7297 34.0432L36.7985 33.9168L37.0673 33.8592L37.4353 33.6912L37.8305 33.48L38.1841 33.1696L38.6369 32.5584L38.8945 32.0512L39.1057 31.568L39.1745 30.792L39.1905 30.096L39.0785 29.2352L38.9473 28.6128L38.8353 27.9744L38.7665 27.3104L38.8209 26.888L38.9361 26.3616L39.1745 25.8384L39.5153 25.3008L39.6417 24.9584L39.6689 24.7888L39.5553 24.6336ZM20.3057 14.3872L20.1937 14.4992L20.0369 14.5872L19.8257 14.6336L19.7521 14.5872L19.7249 14.4368L19.7873 14.2256L19.9377 14.0176L20.0609 13.9568L20.1729 13.968L20.3073 14.08L20.3681 14.1792L20.3057 14.3872ZM20.8577 14.2496L20.8193 14.2688L20.7425 14.272L20.6817 14.2416L20.6321 14.184L20.6401 14.1152L20.6977 14.0224L20.7441 13.992H20.8049L20.8593 14.0032L20.8785 14.0608L20.8865 14.1616L20.8577 14.2496ZM21.5425 14.88L21.4849 14.9072H21.4113L21.3697 14.8848L21.3473 14.8224L21.3553 14.7456L21.3969 14.6992L21.4513 14.696L21.5089 14.712L21.5361 14.7536L21.5553 14.8224L21.5425 14.88ZM22.8513 12.8976L22.7633 12.9216L22.6561 12.9488L22.5377 13.048L22.2721 13.2096L21.9073 13.3088L21.6801 13.3664L21.4609 13.3824L21.3489 13.3712L21.5265 13.2208L21.8529 13.064L22.1793 12.9184L22.4897 12.7728L22.6321 12.704L22.7393 12.688L22.8273 12.7072L22.8961 12.8192L22.8513 12.8976ZM12.9601 28.8208L12.8449 28.7936L12.7873 28.6816L12.9025 28.624L13.0033 28.6352L13.0305 28.7344L12.9601 28.8208ZM14.4465 22.8816L14.3665 23.1808L14.2625 23.5184L14.0785 23.8032L13.9793 23.8304L13.9441 23.7536V23.6032L13.9633 23.4L14.0369 23.016L14.1985 22.736L14.2833 22.6368L14.4065 22.6016L14.4529 22.6704L14.4465 22.8816ZM15.2657 21.7552L15.0817 21.824L14.9057 21.8432L14.7985 21.8016L14.7713 21.7248L14.8017 21.6208L14.8945 21.5552L15.0865 21.5328L15.1857 21.5248L15.2545 21.544L15.3153 21.6016L15.3185 21.6672L15.2657 21.7552ZM16.7665 23.7808L16.7281 23.784L16.6353 23.7264L16.5057 23.6528L16.3937 23.56L16.2897 23.456L16.2433 23.3984L16.2321 23.3136L16.2545 23.272L16.2929 23.2752L16.3585 23.2864L16.4321 23.352L16.5169 23.4288L16.6513 23.5088L16.7313 23.6048L16.7809 23.6784L16.7841 23.744L16.7665 23.7808ZM14.2433 25.7968L14.1745 25.8928L14.1057 25.92L14.0593 25.8816L14.0625 25.744L14.1777 25.544L14.2129 25.4864L14.2705 25.4592L14.3249 25.4944V25.6096L14.2897 25.6896L14.2433 25.7968ZM14.7233 29.3664L14.7009 29.4016H14.6737L14.6241 29.36L14.5857 29.2864L14.5249 29.152L14.4369 28.976L14.3489 28.6992L14.3025 28.4384L14.2945 28.1344L14.3361 27.8352L14.3585 27.8H14.4001L14.4417 27.8384L14.4833 28.0192L14.4865 28.2032L14.5601 28.4368L14.6481 28.6864L14.6865 28.9056L14.7409 29.2624L14.7233 29.3664ZM16.4369 32.6352L16.4833 32.624L16.5953 32.648L16.6449 32.7024L16.6561 32.768L16.6449 32.8448L16.5793 32.8944L16.4993 32.88L16.4417 32.8256L16.4177 32.7072L16.4369 32.6352ZM17.5473 27.4608L17.4321 27.4688L17.2817 27.4464L17.1777 27.4L16.9361 27.2496L16.6977 27.072L16.4289 26.9104L16.3361 26.8416L16.4593 26.8384L16.5937 26.888L16.8241 26.9456L17.0353 27.0496L17.2817 27.1568L17.4577 27.2368L17.5505 27.3216L17.5665 27.3984L17.5473 27.4608ZM18.8257 24.1488L18.6641 24.6016L18.5217 25.0352L18.2721 25.3456L18.1457 25.4416L18.0113 25.4912L17.9345 25.4368L17.9265 25.3376L18.0337 25.2224L18.1457 25.0384L18.2881 24.728L18.3729 24.432L18.4497 24.1408L18.6001 23.8608L18.7009 23.7184L18.7857 23.6944L18.8625 23.7248L18.8865 23.8176L18.8257 24.1488ZM24.9873 15.1632L25.1137 15.0016L25.2593 14.864L25.3905 14.776L25.4865 14.768L25.5521 14.8096V14.928L25.5169 15.0592L25.3713 15.1984L25.1985 15.3056L25.0225 15.352L24.9377 15.3248L24.9265 15.256L24.9873 15.1632ZM24.4737 12.1824L24.5969 12.1408L24.6817 12.1024L24.7889 12.1408L24.8241 12.2176L24.7441 12.3104L24.6321 12.352L24.4977 12.36L24.4481 12.2672L24.4737 12.1824ZM23.4049 13.1776L23.3553 13.0432L23.4289 12.8928L23.5905 12.7584L23.8481 12.7472L24.0369 12.7824L24.1825 12.8832L24.2561 13.056L24.3169 13.24L24.3057 13.4016L24.1441 13.4624H23.9713L23.7633 13.3776L23.5793 13.2784L23.4049 13.1776ZM24.0353 15.1488L23.8161 15.1984H23.6193L23.5841 15.1328L23.6337 15.064L23.6913 15.0288L24.0753 14.7568L24.3089 14.6112L24.4513 14.5232H24.5009L24.5089 14.6272L24.4129 14.704L24.3665 14.8624L24.2481 15.0464L24.0353 15.1488ZM21.4769 22.1712L21.4497 22.1296L21.4577 22.0256L21.5265 21.9488L21.7681 21.8496L22.2721 21.6928L22.7761 21.6304H23.0833L23.3361 21.6848L23.5745 21.8032L23.7633 21.9872L23.7745 22.0912L23.7521 22.1648L23.6721 22.1808L23.5489 22.1648L23.3601 22.1104L23.1825 22.0576L22.9633 22.0336H22.6913L22.4609 22.0304L22.2577 22.0496L22.0305 22.088L21.8497 22.1376L21.6737 22.176L21.5585 22.184L21.4769 22.1712ZM24.6657 32.5968L24.4081 32.4352L23.9745 32.1472L23.3025 31.6944L23.0305 31.5104L22.7425 31.2848L22.4273 30.9968L22.1969 30.816L21.9201 30.5472L21.7393 30.3584L21.6273 30.1856L21.5857 29.9776L21.5937 29.7856L21.6673 29.712L21.7937 29.72L21.9937 29.84L22.2081 30.048L22.3665 30.24L22.5361 30.4096L22.7009 30.6128L22.9089 30.84L23.1057 31.0592L23.7505 31.6192L24.1073 31.9376L24.4257 32.2256L24.6833 32.4672L24.7329 32.5472L24.7681 32.6048L24.6657 32.5968ZM24.8385 23.8144L24.7585 23.8608L24.5633 23.864L24.4321 23.8336L24.3585 23.7376L24.2977 23.6608V23.5376L24.3937 23.4144L24.5393 23.2992L24.6769 23.28L24.8033 23.3152L24.8417 23.384L24.8577 23.5376L24.8769 23.6992L24.8385 23.8144ZM25.2257 17.4832L25.1457 17.7792L24.9649 18.2512L24.7233 18.6512L24.4545 19.1504L24.0241 19.7536L23.6977 20.096L23.4705 20.184L23.3969 20.1808L23.3857 20.1232L23.4545 19.9616L23.7313 19.5344L23.9585 19.0656L24.1617 18.6624L24.5233 17.9632L24.8657 17.4176L25.0417 17.248L25.1761 17.2256L25.2337 17.3184L25.2257 17.4832ZM26.0145 15.432L25.9729 15.536L25.8225 15.712L25.6145 15.8112L25.4065 15.896L25.1905 15.8992H25.0561L25.0097 15.8368L25.0593 15.7488L25.1777 15.6944L25.3857 15.5936L25.6241 15.448L25.7361 15.368L25.9057 15.2864L26.0129 15.3136V15.432H26.0145ZM27.1393 21.9136L27.0625 21.936L26.9633 21.928L26.8977 21.8624L26.9137 21.8048L26.9793 21.7584L27.0785 21.7504L27.1633 21.8192L27.1665 21.8768L27.1393 21.9136ZM27.2545 21.5376H27.1393L27.0769 21.5024V21.4176L27.1041 21.36L27.1649 21.3408H27.2465L27.3233 21.3904L27.3313 21.4512L27.2545 21.5376ZM27.4657 20.9568L27.3873 20.9952L27.3073 21.0064L27.2225 20.9872L27.1953 20.9296V20.8608L27.2641 20.8112L27.3489 20.7952H27.4305L27.4801 20.8368L27.4913 20.9024L27.4657 20.9568ZM27.5729 20.4688L27.4689 20.4992L27.3537 20.496L27.2929 20.4544L27.2897 20.408L27.3089 20.3392L27.4001 20.2976L27.5009 20.2832L27.5857 20.3248L27.6161 20.4048L27.5729 20.4688ZM27.8225 19.7856L27.7649 19.8624L27.7105 19.9312L27.6033 19.9536H27.4961L27.4033 19.9072L27.3953 19.8336L27.4609 19.7648L27.5105 19.7072L27.5841 19.68L27.7025 19.6448H27.7953L27.8369 19.6944L27.8225 19.7856ZM27.9761 19.2128L27.9265 19.2928L27.8385 19.3088L27.7457 19.3328L27.6305 19.3296L27.5809 19.272L27.5889 19.1872L27.6273 19.1296L27.7041 19.0752L27.8225 19.0592L27.9297 19.0816L27.9761 19.1472V19.2128ZM28.1377 18.7904L28.0193 18.84L27.9265 18.8704H27.8113L27.7649 18.8624L27.7073 18.8432L27.6769 18.7856L27.6913 18.712L27.7681 18.6432L27.8337 18.608L27.9073 18.5776L28.0113 18.5744L28.1121 18.6096L28.1537 18.6896L28.1377 18.7904ZM28.1537 18.1328L28.1121 18.2016L28.0385 18.2624L27.9313 18.3008L27.8049 18.312L27.7009 18.2976L27.6737 18.2352L27.6897 18.1856L27.7313 18.1552L27.9153 18.0592L28.0033 18.04L28.1121 18.0512L28.1537 18.0896V18.1328ZM27.7953 16.5776H27.8609L27.8961 16.5552L27.9105 16.4864L27.9249 16.4336L27.9569 16.3952L28.0145 16.392L28.0833 16.4112L28.1457 16.4464L28.1537 16.52L28.1457 16.6384L28.0545 16.7184L27.9345 16.776L27.8849 16.768L27.8353 16.7488L27.7857 16.6864L27.7777 16.6176L27.7953 16.5776ZM27.7953 16.0864V16.0288L27.8465 15.9792L27.9265 15.9488L28.0225 15.9456L28.0801 15.9648L28.0961 16.0144L28.0641 16.064L28.0145 16.1184L27.9329 16.1376H27.8481L27.7953 16.0864ZM27.8001 17.6416L27.8689 17.6L27.9505 17.5808L28.0305 17.5728L28.0881 17.576L28.1105 17.6112V17.6688L28.0833 17.7296L28.0289 17.7904L27.8945 17.848L27.8289 17.84L27.7681 17.8208L27.7521 17.7552L27.7649 17.6816L27.8001 17.6416ZM28.1457 17.1696L28.1265 17.2192L28.0417 17.2768L27.9265 17.3184L27.8625 17.3024L27.8001 17.2672L27.7889 17.2048L27.7969 17.128L27.8433 17.0816L27.9089 17.0352L28.0049 17.016L28.0865 17.0128L28.1409 17.0288L28.1601 17.0832L28.1457 17.1696ZM28.1761 15.544L28.1649 15.6096L28.1233 15.6672L28.0545 15.6944L27.9889 15.7104L27.9313 15.7184L27.8545 15.7104L27.8353 15.664L27.8545 15.6032L27.9009 15.5616L27.9521 15.5344L28.0369 15.4768L28.1249 15.48L28.1761 15.544ZM28.0577 14.9792L28.1041 15.0064L28.1121 15.072L28.1073 15.1344L28.0353 15.2L27.9665 15.2272L27.9201 15.2192L27.8849 15.2V15.1376L27.8881 15.072L27.9377 15.0192L27.9841 14.992L28.0577 14.9792ZM27.9681 14.6608L27.9489 14.7296L27.8977 14.768L27.8513 14.7952L27.7889 14.8032L27.7393 14.7728L27.7281 14.7184L27.7505 14.672L27.7969 14.6096L27.8433 14.5872L27.9041 14.584L27.9553 14.6144L27.9681 14.6608ZM27.3393 13.4192L27.4513 13.4112L27.6081 13.3504L27.7505 13.32L27.8689 13.312L27.9297 13.3696L27.8449 13.496L27.7601 13.5184L27.6193 13.568L27.4353 13.672L27.2593 13.7648L27.0561 13.8496L26.9873 13.8576L26.9297 13.8384L26.9377 13.7536L26.9073 13.6736V13.528L26.9729 13.3632L27.0641 13.264L27.1233 13.1872L27.1841 13.1104H27.2769L27.3409 13.176L27.3265 13.3376L27.3393 13.4192ZM27.2737 11.8912L27.3153 11.9184L27.3009 11.96L27.2385 12.0336L27.1537 12.0416L27.0529 12.0272L26.9953 12L26.9537 11.9504L27.0033 11.9088L27.0753 11.8784L27.1873 11.8752L27.2737 11.8912ZM26.7441 11.296L26.9361 11.2768L27.0401 11.312L27.1217 11.3536L27.1249 11.4224L27.0561 11.4528L26.9489 11.4608L26.8449 11.4528L26.7633 11.4368L26.6945 11.3872L26.7441 11.296ZM28.2305 31.2448L28.1377 31.3296L28.0529 31.4256L27.9681 31.6032L27.9409 31.7264L27.8833 31.7728L27.7713 31.7584L27.7169 31.6928L27.7361 31.4592L27.7969 31.1664L27.8273 31.0048L27.9009 30.8016L27.9553 30.7408L28.0353 30.7248H28.1425L28.1889 30.768L28.2689 30.8864L28.2849 31.1136L28.2305 31.2448ZM28.4145 28.4672L27.9297 28.2128L27.6769 27.9712L27.2545 27.5488L26.8705 27.064L26.5329 26.5152L26.2641 25.8352L26.1521 25.3664L26.2049 25.0976L26.3585 25.056L26.5153 25.1296L26.6161 25.4096L26.7009 25.8208L26.8545 26.248L27.2545 26.8704L27.7921 27.6624L28.4145 28.4672ZM28.4497 36.7296L28.3409 37.0288L28.2881 37.1744L28.1873 37.4016L28.1105 37.6672L28.0881 37.744L28.0609 37.7936H27.9873L27.9297 37.6208L27.9265 37.424L27.9681 37.1552L28.0641 36.7872L28.2225 36.56L28.3649 36.384L28.4913 36.368L28.5265 36.4832L28.4497 36.7296ZM29.0097 40.7488L28.9825 40.752L28.9329 40.7296L28.8401 40.5952L28.7025 40.368L28.6369 40.2176L28.5985 40.0096V39.8176L28.6065 39.7024L28.6337 39.6672H28.6945L28.7601 39.6944L28.8449 39.7936L28.9073 39.9664L28.9489 40.1968L28.9521 40.3808L28.9553 40.4464L28.9905 40.5344L29.0257 40.712L29.0097 40.7488ZM26.1713 47.3904L26.1137 47.5024L26.0449 47.6064L25.9329 47.68L25.8257 47.7024H25.7793L25.7297 47.664L25.7137 47.584L25.7329 47.4832L25.7905 47.368L25.9473 47.2112L26.0657 47.1376L26.1505 47.1344L26.1937 47.1696L26.2049 47.2496L26.1713 47.3904ZM27.2241 45.6928L27.1649 45.7728L27.0929 45.8144L27.0049 45.8448L26.9393 45.8256L26.9009 45.7568L26.9089 45.688L26.9745 45.6064L27.1057 45.5264L27.2017 45.5104L27.2481 45.5376L27.2609 45.6064L27.2241 45.6928ZM29.5745 43.3488L29.4049 43.5984L29.1777 43.864L28.9201 44.1136L28.6481 44.3984L28.3937 44.6288L28.1937 44.8096L28.0817 44.8832L28.0081 44.88L27.9729 44.8224L27.9889 44.7264L28.3009 44.3808L28.7377 43.9088L29.2689 43.3744L29.3681 43.2672L29.5185 43.1712L29.5729 43.1824L29.6177 43.24L29.5745 43.3488ZM30.5537 42.592L30.6193 42.568L30.7041 42.5712L30.7425 42.5904L30.7457 42.632L30.7121 42.6864L30.6353 42.7552L30.5665 42.832H30.5201L30.4673 42.8016L30.4545 42.736L30.4769 42.6704L30.5537 42.592ZM33.3889 34.8592L33.3729 34.9856L33.3345 35.104L33.3105 35.2112L33.2305 35.2576L33.1569 35.2384L33.1201 35.1696L33.0961 34.928L32.9345 34.7056L32.9201 34.5216L33.0113 34.4064L33.1073 34.376L33.2001 34.384L33.2769 34.4528L33.3649 34.5648L33.3889 34.6912V34.8592ZM38.1729 30.4688L38.1649 30.6496L38.0929 31.0448L37.9921 31.3824L37.8769 31.6784L37.7041 32L37.5073 32.2768L37.2113 32.6224L36.8737 32.9456L36.7009 32.9872L36.6081 32.9456L36.5937 32.8224L36.6673 32.6576L36.7665 32.4768L36.9473 32.2384L37.1425 31.9728L37.3265 31.6848L37.5073 31.3888L37.6449 31.1008L37.7265 30.8048L37.7953 30.4672L37.8113 30.0912L37.8257 29.7536L37.8033 29.4576L37.7681 29.1152L37.7377 28.792L37.7185 28.6112L37.8177 28.512L37.8833 28.5472L37.9329 28.704L38.0321 29.0144L38.1137 29.3872L38.1713 29.744V30.4688H38.1729Z" fill="white"/>
<g filter="url(#filter0_d_12_469)">
<circle cx="26" cy="84.9951" r="6" fill="url(#paint1_linear_12_469)"/>
</g>
<defs>
<filter id="filter0_d_12_469" x="8" y="66.9951" width="36" height="36" filterUnits="userSpaceOnUse" color-interpolation-filters="sRGB">
<feFlood flood-opacity="0" result="BackgroundImageFix"/>
<feColorMatrix in="SourceAlpha" type="matrix" values="0 0 0 0 0 0 0 0 0 0 0 0 0 0 0 0 0 0 127 0" result="hardAlpha"/>
<feMorphology radius="2" operator="dilate" in="SourceAlpha" result="effect1_dropShadow_12_469"/>
<feOffset/>
<feGaussianBlur stdDeviation="5"/>
<feComposite in2="hardAlpha" operator="out"/>
<feColorMatrix type="matrix" values="0 0 0 0 1 0 0 0 0 0 0 0 0 0 0 0 0 0 1 0"/>
<feBlend mode="normal" in2="BackgroundImageFix" result="effect1_dropShadow_12_469"/>
<feBlend mode="normal" in="SourceGraphic" in2="effect1_dropShadow_12_469" result="shape"/>
</filter>
<linearGradient id="paint0_linear_12_469" x1="26" y1="0" x2="26" y2="75" gradientUnits="userSpaceOnUse">
<stop stop-color="#FF0000"/>
<stop offset="1" stop-color="#C70000"/>
</linearGradient>
<linearGradient id="paint1_linear_12_469" x1="26" y1="78.9951" x2="26" y2="90.9951" gradientUnits="userSpaceOnUse">
<stop stop-color="#FF0000"/>
<stop offset="1" stop-color="#C70000"/>
</linearGradient>
</defs>
</svg>
