<svg width="40" height="40" viewBox="0 0 40 40" fill="none" xmlns="http://www.w3.org/2000/svg">
<path d="M38.9113 29.356L33.3292 23.7738C31.3356 21.7802 27.9464 22.5778 27.149 25.1694C26.5509 26.9637 24.5573 27.9605 22.763 27.5617C18.7758 26.5649 13.393 21.3815 12.3962 17.1949C11.7981 15.4006 12.9943 13.407 14.7886 12.809C17.3803 12.0115 18.1777 8.62238 16.1841 6.62877L10.602 1.04665C9.00709 -0.348882 6.61475 -0.348882 5.21922 1.04665L1.43136 4.83451C-2.35651 8.82174 1.83008 19.3879 11.2001 28.7579C20.5701 38.1279 31.1362 42.5139 35.1234 38.5266L38.9113 34.7387C40.3069 33.1438 40.3069 30.7515 38.9113 29.356Z" fill="#FF0000"/>
</svg>
